<mxfile host="app.diagrams.net" modified="2020-12-08T17:05:41.344Z" agent="5.0 (Macintosh; Intel Mac OS X 10_15_7) AppleWebKit/537.36 (KHTML, like Gecko) Chrome/87.0.4280.67 Safari/537.36" etag="6Wm2xIPWXZZ-KU3nY6JI" version="13.10.4" type="github">
  <diagram id="j21f6u2e4qj2vZepf9Lw" name="Page-1">
    <mxGraphModel dx="661" dy="536" grid="1" gridSize="10" guides="1" tooltips="1" connect="1" arrows="1" fold="1" page="1" pageScale="1" pageWidth="850" pageHeight="1100" math="0" shadow="0">
      <root>
        <mxCell id="0" />
        <mxCell id="1" parent="0" />
        <mxCell id="A17nTPrWeXEpB0igfruO-1" value="Identify Feature(s)" style="aspect=fixed;perimeter=ellipsePerimeter;html=1;align=center;shadow=0;dashed=0;fontColor=#4277BB;labelBackgroundColor=#ffffff;fontSize=12;spacingTop=3;image;image=img/lib/ibm/data/caches.svg;" parent="1" vertex="1">
          <mxGeometry x="50" y="170" width="60" height="60" as="geometry" />
        </mxCell>
        <mxCell id="A17nTPrWeXEpB0igfruO-13" value="Deploy" style="edgeStyle=orthogonalEdgeStyle;rounded=0;orthogonalLoop=1;jettySize=auto;html=1;exitX=1;exitY=0.5;exitDx=0;exitDy=0;entryX=0;entryY=0.5;entryDx=0;entryDy=0;" parent="1" source="mTP6DE1mnHivNKF8u6iY-1" target="A17nTPrWeXEpB0igfruO-6" edge="1">
          <mxGeometry relative="1" as="geometry" />
        </mxCell>
        <mxCell id="A17nTPrWeXEpB0igfruO-2" value="Watson &lt;br&gt;AutoAI" style="aspect=fixed;perimeter=ellipsePerimeter;html=1;align=center;shadow=0;dashed=0;fontColor=#4277BB;labelBackgroundColor=#ffffff;fontSize=12;spacingTop=3;image;image=img/lib/ibm/analytics/analytics.svg;" parent="1" vertex="1">
          <mxGeometry x="425" y="105" width="60" height="60" as="geometry" />
        </mxCell>
        <mxCell id="A17nTPrWeXEpB0igfruO-14" value="Run" style="edgeStyle=orthogonalEdgeStyle;rounded=0;orthogonalLoop=1;jettySize=auto;html=1;exitX=1;exitY=0.5;exitDx=0;exitDy=0;entryX=0;entryY=0.5;entryDx=0;entryDy=0;" parent="1" source="A17nTPrWeXEpB0igfruO-6" target="A17nTPrWeXEpB0igfruO-7" edge="1">
          <mxGeometry relative="1" as="geometry" />
        </mxCell>
        <mxCell id="A17nTPrWeXEpB0igfruO-6" value="Watson&lt;br&gt;Machine Learning" style="aspect=fixed;perimeter=ellipsePerimeter;html=1;align=center;shadow=0;dashed=0;fontColor=#4277BB;labelBackgroundColor=#ffffff;fontSize=12;spacingTop=3;image;image=img/lib/ibm/analytics/analytics.svg;" parent="1" vertex="1">
          <mxGeometry x="550" y="235" width="60" height="60" as="geometry" />
        </mxCell>
        <mxCell id="A17nTPrWeXEpB0igfruO-16" style="edgeStyle=orthogonalEdgeStyle;rounded=0;orthogonalLoop=1;jettySize=auto;html=1;exitX=1;exitY=0.5;exitDx=0;exitDy=0;entryX=0;entryY=0.5;entryDx=0;entryDy=0;" parent="1" source="A17nTPrWeXEpB0igfruO-7" target="A17nTPrWeXEpB0igfruO-15" edge="1">
          <mxGeometry relative="1" as="geometry" />
        </mxCell>
        <mxCell id="A17nTPrWeXEpB0igfruO-7" value="Watson &lt;br&gt;OpenScale" style="aspect=fixed;perimeter=ellipsePerimeter;html=1;align=center;shadow=0;dashed=0;fontColor=#4277BB;labelBackgroundColor=#ffffff;fontSize=12;spacingTop=3;image;image=img/lib/ibm/analytics/analytics.svg;" parent="1" vertex="1">
          <mxGeometry x="680" y="235" width="60" height="60" as="geometry" />
        </mxCell>
        <mxCell id="A17nTPrWeXEpB0igfruO-15" value="Trust UI" style="aspect=fixed;perimeter=ellipsePerimeter;html=1;align=center;shadow=0;dashed=0;fontColor=#4277BB;labelBackgroundColor=#ffffff;fontSize=12;spacingTop=3;image;image=img/lib/ibm/users/browser.svg;" parent="1" vertex="1">
          <mxGeometry x="790" y="235" width="60" height="60" as="geometry" />
        </mxCell>
        <mxCell id="mTP6DE1mnHivNKF8u6iY-1" value="Watson Notebook&lt;br&gt;(Supervised)" style="aspect=fixed;perimeter=ellipsePerimeter;html=1;align=center;shadow=0;dashed=0;fontColor=#4277BB;labelBackgroundColor=#ffffff;fontSize=12;spacingTop=3;image;image=img/lib/ibm/analytics/analytics.svg;" vertex="1" parent="1">
          <mxGeometry x="425" y="235" width="60" height="60" as="geometry" />
        </mxCell>
        <mxCell id="mTP6DE1mnHivNKF8u6iY-5" style="edgeStyle=orthogonalEdgeStyle;rounded=0;orthogonalLoop=1;jettySize=auto;html=1;exitX=1;exitY=0.5;exitDx=0;exitDy=0;entryX=0;entryY=0.5;entryDx=0;entryDy=0;" edge="1" parent="1" source="mTP6DE1mnHivNKF8u6iY-2" target="mTP6DE1mnHivNKF8u6iY-3">
          <mxGeometry relative="1" as="geometry" />
        </mxCell>
        <mxCell id="mTP6DE1mnHivNKF8u6iY-2" value="Trust-AI&amp;nbsp;&lt;br&gt;(Node.js)" style="aspect=fixed;perimeter=ellipsePerimeter;html=1;align=center;shadow=0;dashed=0;fontColor=#4277BB;labelBackgroundColor=#ffffff;fontSize=12;spacingTop=3;image;image=img/lib/ibm/applications/api_polyglot_runtimes.svg;" vertex="1" parent="1">
          <mxGeometry x="160" y="170" width="60" height="60" as="geometry" />
        </mxCell>
        <mxCell id="mTP6DE1mnHivNKF8u6iY-8" style="edgeStyle=orthogonalEdgeStyle;rounded=0;orthogonalLoop=1;jettySize=auto;html=1;exitX=1;exitY=0.5;exitDx=0;exitDy=0;entryX=0;entryY=0.5;entryDx=0;entryDy=0;dashed=1;" edge="1" parent="1" source="mTP6DE1mnHivNKF8u6iY-3" target="A17nTPrWeXEpB0igfruO-2">
          <mxGeometry relative="1" as="geometry" />
        </mxCell>
        <mxCell id="mTP6DE1mnHivNKF8u6iY-10" value="&lt;font style=&quot;font-size: 14px&quot;&gt;Evaluate&lt;/font&gt;" style="edgeLabel;html=1;align=center;verticalAlign=middle;resizable=0;points=[];" vertex="1" connectable="0" parent="mTP6DE1mnHivNKF8u6iY-8">
          <mxGeometry x="0.3118" y="-3" relative="1" as="geometry">
            <mxPoint x="1" y="19.5" as="offset" />
          </mxGeometry>
        </mxCell>
        <mxCell id="mTP6DE1mnHivNKF8u6iY-9" style="edgeStyle=orthogonalEdgeStyle;rounded=0;orthogonalLoop=1;jettySize=auto;html=1;exitX=1;exitY=0.5;exitDx=0;exitDy=0;entryX=0;entryY=0.617;entryDx=0;entryDy=0;entryPerimeter=0;dashed=1;" edge="1" parent="1" source="mTP6DE1mnHivNKF8u6iY-3" target="mTP6DE1mnHivNKF8u6iY-1">
          <mxGeometry relative="1" as="geometry" />
        </mxCell>
        <mxCell id="mTP6DE1mnHivNKF8u6iY-11" value="&lt;font style=&quot;font-size: 14px&quot;&gt;Model&lt;/font&gt;" style="edgeLabel;html=1;align=center;verticalAlign=middle;resizable=0;points=[];" vertex="1" connectable="0" parent="mTP6DE1mnHivNKF8u6iY-9">
          <mxGeometry x="0.113" relative="1" as="geometry">
            <mxPoint as="offset" />
          </mxGeometry>
        </mxCell>
        <mxCell id="mTP6DE1mnHivNKF8u6iY-15" style="edgeStyle=orthogonalEdgeStyle;rounded=0;orthogonalLoop=1;jettySize=auto;html=1;exitX=1;exitY=0.5;exitDx=0;exitDy=0;entryX=0;entryY=0.5;entryDx=0;entryDy=0;dashed=1;" edge="1" parent="1" source="mTP6DE1mnHivNKF8u6iY-3" target="mTP6DE1mnHivNKF8u6iY-13">
          <mxGeometry relative="1" as="geometry" />
        </mxCell>
        <mxCell id="mTP6DE1mnHivNKF8u6iY-3" value="COS" style="aspect=fixed;perimeter=ellipsePerimeter;html=1;align=center;shadow=0;dashed=0;fontColor=#4277BB;labelBackgroundColor=#ffffff;fontSize=12;spacingTop=3;image;image=img/lib/ibm/data/cloud.svg;" vertex="1" parent="1">
          <mxGeometry x="260" y="170" width="60" height="60" as="geometry" />
        </mxCell>
        <mxCell id="mTP6DE1mnHivNKF8u6iY-4" value="" style="html=1;labelBackgroundColor=#ffffff;endArrow=classic;endFill=1;endSize=6;jettySize=auto;orthogonalLoop=1;strokeWidth=1;fontSize=14;exitX=1;exitY=0.5;exitDx=0;exitDy=0;entryX=0;entryY=0.5;entryDx=0;entryDy=0;" edge="1" parent="1" source="A17nTPrWeXEpB0igfruO-1" target="mTP6DE1mnHivNKF8u6iY-2">
          <mxGeometry width="60" height="60" relative="1" as="geometry">
            <mxPoint x="170" y="370" as="sourcePoint" />
            <mxPoint x="230" y="310" as="targetPoint" />
          </mxGeometry>
        </mxCell>
        <mxCell id="mTP6DE1mnHivNKF8u6iY-13" value="Watson Notebook&lt;br&gt;(Semi-Supervised)" style="aspect=fixed;perimeter=ellipsePerimeter;html=1;align=center;shadow=0;dashed=0;fontColor=#4277BB;labelBackgroundColor=#ffffff;fontSize=12;spacingTop=3;image;image=img/lib/ibm/analytics/analytics.svg;" vertex="1" parent="1">
          <mxGeometry x="425" y="380" width="60" height="60" as="geometry" />
        </mxCell>
      </root>
    </mxGraphModel>
  </diagram>
</mxfile>
